<svg width="768" height="755" viewBox="0 0 768 755" fill="none" xmlns="http://www.w3.org/2000/svg">
<path fill-rule="evenodd" clip-rule="evenodd" d="M438.627 41.3726C444.629 47.3738 448 55.5131 448 64V229.49C448 237.977 451.371 246.117 457.373 252.118L758.627 553.373C764.629 559.374 768 567.513 768 576V722.745C768 740.418 753.673 754.745 736 754.745H32C14.3269 754.745 0 740.418 0 722.745V384C0 375.513 3.37142 367.374 9.37258 361.373L361.373 9.37258C373.869 -3.1242 394.131 -3.12419 406.627 9.37258L438.627 41.3726ZM320 231.745L128 423.765V626.745H320V231.745ZM448 626.745H640V615.765L448 423.745V626.745Z" fill="#2360FF"/>
</svg>
