<svg xmlns="http://www.w3.org/2000/svg" id="_레이어_1" version="1.1" viewBox="0 0 1000 1000"><defs><style>.st1{fill:#fff}</style></defs><circle cx="499.9999439" cy="499.9999872" r="499.3313999" style="fill:#0090d2"/><path d="M626.67 625.964h47.285c13.723 0 25.965-6.19 34.174-15.869 13.605-9.195 26.32-58.004 32.8-117.447 11.213-102.972-7.714-215.258-7.714-215.258-13.745-78.08-41.363-140.204-65.194-150.42-24.732-12.843-90.912-22.006-168.68-22.006-90.828 0-165.807 12.5-177.48 28.745-21.266 20.258-43.606 75.955-55.559 143.68 0 0-17.832 72.49-7.703 215.26 3.1 43.659 12.339 81.277 21.963 102.007 5.72 18.133 22.672 31.308 42.704 31.308h50.043L226.571 857.972h63.423l44.045-69.646H665.95l44.046 69.646h63.433zm19.645-66.287c-19.496 0-35.28-15.784-35.28-35.236 0-19.485 15.784-35.269 35.28-35.269 19.464 0 35.226 15.784 35.226 35.269 0 19.452-15.762 35.236-35.226 35.236M301.238 285.94c10.172-57.607 29.174-104.968 47.264-122.21 9.904-13.799 73.66-24.432 150.902-24.432 66.138 0 122.404 7.832 143.424 18.723 20.268 8.68 43.734 61.514 55.45 127.92 13.23 75.064 6.417 139.034-15.235 142.865-1.363.225-2.747.204-4.163 0H320.627c-1.406.204-2.79.225-4.131 0-21.663-3.83-28.498-67.8-15.258-142.866m280.527 369.326H418.224l18.52-29.303h126.491zm-228.09-95.59c-19.443 0-35.226-15.784-35.226-35.236 0-19.485 15.783-35.269 35.225-35.269 19.485 0 35.269 15.784 35.269 35.269 0 19.452-15.784 35.236-35.269 35.236m7.102 186.374 30.687-48.498h217.061l30.676 48.498z" class="st1"/><path d="m484.764 356.69-30.645 22.594a10.7 10.7 0 0 0-4.33 7.986l-.598 10.262 45.857-7.217c.671 1.767 2.676 2.977 4.952 2.977s4.28-1.21 4.952-2.977l45.857 7.217-.598-10.262a10.7 10.7 0 0 0-4.33-7.986l-30.646-22.594 3.747-54.164c12.893 3.63 100.783 31.41 106.755 33.037v-11.422c0-5.553-2.709-10.757-7.258-13.941l-99.644-66.335-1.869-41.595c-.41-9.104-2.464-18.089-6.323-26.345-2.838-6.074-6.53-11.307-10.67-11.304-4.141-.003-7.833 5.23-10.671 11.304-3.859 8.256-5.914 17.24-6.323 26.345l-1.871 41.633L381.52 310.2a17.02 17.02 0 0 0-7.258 13.941v11.422c5.972-1.628 93.862-29.407 106.754-33.037z" class="st1"/></svg>