<svg xmlns="http://www.w3.org/2000/svg" viewBox="0 0 1200 1200"><circle cx="600" cy="600" r="600" style="fill:#084f9a"/><path d="M448.804 448.25a21.298 21.298 0 0 1-3.85 2.1 228.514 228.514 0 0 1-27.475 5.425q-15.93 2.28-33.25 3.675-17.325 1.403-34.475 1.925a281.706 281.706 0 0 1-30.45-.525q-12.6-.697-19.075-5.95-6.48-5.25-6.475-17.5V271.85q0-12.248 5.075-17.15 5.07-4.898 18.375-4.9h101.5q4.897 0 4.9 4.9v24.15q0 4.553-4.9 4.55h-78.05q-6.652 0-6.65 5.95V417.1q0 5.602 1.925 7.175 1.92 1.575 8.575 2.275a116.91 116.91 0 0 0 19.25.7q11.895-.344 25.375-1.575 13.47-1.222 26.6-2.975 13.125-1.748 22.925-3.85a7.589 7.589 0 0 1 4.55 0 4.466 4.466 0 0 1 2.8 3.5l4.2 21.35q.698 3.15-1.4 4.55Zm86.1-221.55q0-4.545 4.9-4.55h30.1q4.545 0 4.55 4.55v323.05q0 4.545-4.55 4.55h-30.45q-4.553 0-4.55-4.55V384.2h-32.55v152.25q0 4.897-4.55 4.9h-28.7q-4.906 0-4.9-4.9V233q0-4.545 4.9-4.55h28.7q4.545 0 4.55 4.55v117.6h32.55ZM874.4 257.15a538.291 538.291 0 0 1-3.5 63.35 515.601 515.601 0 0 1-9.8 56.35h55.3a6.187 6.187 0 0 1 5.25 5.25v23.1a6.187 6.187 0 0 1-5.25 5.25H781.3v136.5q0 4.897-4.9 4.9h-30.45q-4.906 0-4.9-4.9v-136.5h-129.5a4.297 4.297 0 0 1-3.5-1.75 5.585 5.585 0 0 1-1.4-3.5v-23.1a5.354 5.354 0 0 1 1.4-3.675 4.485 4.485 0 0 1 3.5-1.575H822.6q4.898-21.345 8.4-48.825a433.63 433.63 0 0 0 3.5-54.775q0-4.897-2.45-6.125a17.096 17.096 0 0 0-7.35-1.225H656a6.037 6.037 0 0 1-3.5-1.225 3.552 3.552 0 0 1-1.75-2.975v-25.2a3.431 3.431 0 0 1 1.75-3.15 6.739 6.739 0 0 1 3.5-1.05h195.3q11.196 0 17.15 5.95 5.947 5.955 5.95 18.9ZM309.154 839.55q-4.553 2.805-7 2.1a9.485 9.485 0 0 1-4.55-3.15l-14.35-16.45q-3.502-3.846-2.625-6.474a9.472 9.472 0 0 1 4.025-4.726 227.681 227.681 0 0 0 34.3-28.174A139.899 139.899 0 0 0 343.28 749.6a159.556 159.556 0 0 0 14.525-40.425q4.898-22.221 4.9-50.224a6.319 6.319 0 0 1 1.75-4.375 4.886 4.886 0 0 1 3.5-1.925l30.8 1.75q4.545 0 4.55 5.25 0 15.053-1.224 28.35a246.399 246.399 0 0 1-3.676 25.55 110.375 110.375 0 0 0 12.6 28.175A164.964 164.964 0 0 0 429.73 766.4a179.137 179.137 0 0 0 21.524 19.95 138.041 138.041 0 0 0 21.35 14q5.25 2.807 1.4 8.4l-13.3 18.9a7.86 7.86 0 0 1-4.025 3.15 6.064 6.064 0 0 1-5.075-1.05 159.178 159.178 0 0 1-39.9-28.526 168.515 168.515 0 0 1-30.1-39.024 176.681 176.681 0 0 1-29.925 41.825 273.426 273.426 0 0 1-42.525 35.525ZM557.13 967.3a6.467 6.467 0 0 1-3.674 1.05h-184.8q-15.75 0-21.175-5.6-5.431-5.603-5.426-19.25v-76.65a5.47 5.47 0 0 1 4.9-4.9h30.1a5.034 5.034 0 0 1 3.676 1.576 4.687 4.687 0 0 1 1.574 3.324v62.3c0 2.33.465 3.85 1.4 4.55q1.395 1.05 4.9 1.05h164.85a5.604 5.604 0 0 1 3.5 1.4 4.008 4.008 0 0 1 1.75 3.15v24.85a3.534 3.534 0 0 1-1.575 3.15Zm38.85-187.6a4.946 4.946 0 0 1-3.325 1.4h-47.6v92.4q0 4.552-4.55 4.55h-31.15q-4.553 0-4.55-4.55V646.7q0-4.544 4.55-4.55h31.15q4.545 0 4.55 4.55v100.8h47.6a5.35 5.35 0 0 1 3.325 1.225 3.668 3.668 0 0 1 1.575 2.975v24.85a4.136 4.136 0 0 1-1.574 3.15ZM884.2 818.9h-31.15q-4.553 0-4.55-4.9v-65.1h-54.95a80.073 80.073 0 0 1-10.15 23.625 73.603 73.603 0 0 1-17.5 19.075 85.006 85.006 0 0 1-24.15 12.775A90.393 90.393 0 0 1 712 809.1a87.599 87.599 0 0 1-34.3-6.475 80.905 80.905 0 0 1-26.25-17.325 77.352 77.352 0 0 1-16.8-25.024 75.582 75.582 0 0 1-5.95-29.576 77.762 77.762 0 0 1 5.95-30.1 76.926 76.926 0 0 1 16.8-25.2 81.077 81.077 0 0 1 26.25-17.325 94.495 94.495 0 0 1 64.925-1.4 86.392 86.392 0 0 1 24.5 13.65 72.942 72.942 0 0 1 17.5 20.3 84.308 84.308 0 0 1 9.625 24.675h54.25v-68.6q0-4.544 4.55-4.55h31.15q4.543 0 4.55 4.55V814q0 4.906-4.55 4.9Zm-127.05-88.2a49.447 49.447 0 0 0-3.15-17.5 43.322 43.322 0 0 0-9.1-14.7 45.746 45.746 0 0 0-14.35-10.15A44.032 44.032 0 0 0 712 684.5a42.828 42.828 0 0 0-18.375 3.85 46.243 46.243 0 0 0-14.175 10.15 43.248 43.248 0 0 0-9.1 14.7 49.446 49.446 0 0 0-3.15 17.5 48.008 48.008 0 0 0 3.15 17.325 43.614 43.614 0 0 0 23.275 24.5A44.544 44.544 0 0 0 712 776.2a45.804 45.804 0 0 0 18.55-3.675 43.17 43.17 0 0 0 23.45-24.5 48.009 48.009 0 0 0 3.15-17.325Zm126 232.575q-5.604 5.775-20.65 5.775H707.8q-15.406 0-21-5.25-5.603-5.25-5.6-19.25v-103.6a3.817 3.817 0 0 1 1.4-2.976 4.659 4.659 0 0 1 3.15-1.224h30.8a5.35 5.35 0 0 1 3.325 1.224 3.668 3.668 0 0 1 1.575 2.976v32.2H848.5v-33.6a4.803 4.803 0 0 1 4.55-4.55h31.15a4.803 4.803 0 0 1 4.55 4.55V945.6q0 11.894-5.6 17.675ZM848.5 905.7H721.45v24.5q0 5.947 6.3 5.95H842.2q6.3 0 6.3-5.95Z" style="fill:#fff"/></svg>