<svg xmlns="http://www.w3.org/2000/svg" xml:space="preserve" width="450px" height="450px" x="0px" y="0px" viewBox="0 0 450 450"><path fill="#FFB100" d="M450 407.567C450 430.998 431.006 450 407.568 450H42.431C18.999 450 0 430.998 0 407.567V42.425C0 18.994 18.999 0 42.431 0h365.136C431.006 0 450 18.994 450 42.425v365.142z" style="fill:#09c;fill-opacity:1"/><path d="M302.404 379.25v-77.016h39.209v-43.41h-39.209V75.853h-67.681l-123.694 189.04v37.342h137.23v77.017zM165.641 258.826l.467-.934 55.545-83.084c9.336-16.804 17.27-32.207 26.606-51.345h1.867c-1.4 17.737-1.867 35.474-1.867 52.745v82.618z" style="font-weight:700;font-size:466.768px;font-family:&quot;Myriad Pro&quot;;fill:#fff;stroke-width:15.9126" transform="scale(.99488 1.00515)"/></svg>