<svg xmlns="http://www.w3.org/2000/svg" id="_레이어_1" version="1.1" viewBox="0 0 500 500"><defs><style>.st1{fill:#fff}</style></defs><path d="M250 500c-66.8 0-129.6-26-176.8-73.2S0 316.8 0 250 26 120.4 73.2 73.2 183.2 0 250 0s129.6 26 176.8 73.2S500 183.2 500 250s-26 129.6-73.2 176.8S316.8 500 250 500" style="fill:#0066b3"/><path d="M67.5 170.9h76.6v23.3H96.4v87.9c19.9-.3 37.5-1.5 57.4-5l2 23.5c-25.1 4.7-47 5.5-74.1 5.6H67.5zm172 181.9h-27.3V249.5h-19.9v93.3h-26.4V150.5h26.4v75.9h19.9v-79.3h27.3v205.6ZM430.9 265.8h-28.7v-20.1h-46.3v-23h46.3V203H358c-12.9 32.5-42.1 55-87.3 67.3l-11.3-22.8c47.2-12.3 70.5-35 74.6-63.3h-63.5v-23h94.9q0 10.05-1.5 19.2h38.3v-33h28.7zm-68.5 2.5c41.7.1 69.9 16.2 70 41.6-.1 25.8-28.4 42-70 42s-70.4-16.3-70.3-42c-.1-25.4 28-41.5 70.3-41.6m0 60.8c25.5 0 41-6.4 41.1-19.2-.1-12.7-15.6-19.2-41.1-19-26.1-.2-41.6 6.3-41.6 19s15.5 19.2 41.6 19.2" class="st1"/></svg>