<svg xmlns="http://www.w3.org/2000/svg" shape-rendering="geometricPrecision" text-rendering="geometricPrecision" viewBox="0 0 300 300"><circle r="150" fill="#789" transform="translate(150 150)"/><g style="font-weight:700;font-size:110px;font-family:&quot;SeoulAlrim TTF&quot;;letter-spacing:0;word-spacing:0;fill:#fff;stroke-width:0"><path d="M137.02 45.925v95.04h-12.43v-49.39H110.4v49.06H98.08v-94.27h12.32v33h14.19v-33.44zm-47.85 5.94v10.89H64.2v43.45h3.96q1.43 0 4.07-.11 2.75-.22 5.94-.55 3.3-.44 6.71-.99 3.52-.66 6.49-1.54l1.43 10.67q-2.75.88-6.05 1.65-3.3.66-6.82 1.1t-7.04.66q-3.41.22-6.38.22H51.55v-65.45Zm112.86 50.93q16.06 0 25.08 5.5 9.13 5.39 9.13 16.39t-9.02 16.39q-9.02 5.5-25.19 5.5-16.39 0-25.41-5.5-8.91-5.39-8.91-16.39t8.8-16.39q8.91-5.5 25.52-5.5m7.37-54.01v10.56h-19.69v4.62q0 1.98-.33 3.85-.22 1.87-.77 3.74 2.31 2.09 5.39 4.07 3.19 1.98 6.38 3.74t6.27 3.19q3.19 1.32 5.5 2.09l-3.3 10.89q-2.75-.77-6.05-2.2-3.3-1.54-6.6-3.41-3.3-1.98-6.49-4.18-3.08-2.2-5.5-4.4-1.76 2.53-3.85 4.95-2.09 2.31-4.29 4.29t-4.62 3.74q-2.31 1.65-4.73 3.08t-4.62 2.53-3.85 1.76l-4.95-10.78q3.08-1.21 6.82-3.19 3.85-2.09 6.93-4.62 5.17-4.18 7.48-8.58 2.42-4.4 2.42-9.79v-5.39h-19.8v-10.56zm25.74-2.75v20.46h15.4v11.66h-15.4v22.11h-12.76v-54.23Zm-33.11 67.21q-10.12 0-15.84 2.64-5.61 2.64-5.61 8.8t5.61 8.8q5.72 2.64 15.84 2.64 10.01 0 15.62-2.64 5.72-2.64 5.72-8.8t-5.72-8.8q-5.61-2.64-15.62-2.64M89.39 204.025v-3.52q-12.21-.77-18.48-4.51-6.27-3.85-6.27-11.33 0-7.81 8.03-11.33t23.32-3.52q15.07 0 23.21 3.52t8.14 11.33q0 7.37-6.27 11.22t-18.26 4.62v3.52h39.82v10.12H49.46v-10.12zm6.6 14.85q35.86 0 35.86 17.6t-35.86 17.6q-18.26 0-27.06-4.4t-8.8-13.2q0-8.69 8.69-13.09 8.8-4.51 27.17-4.51m-38.83-61.49h31.79l-.88-9.68h15.4l-.99 9.68h32.34v10.01H57.16Zm38.83 71.28q-10.89 0-17.05 1.87-6.05 1.87-6.05 5.94 0 4.29 6.05 6.05 6.16 1.76 17.05 1.76t16.94-1.76 6.05-6.05q0-4.07-6.05-5.94t-16.94-1.87m0-50.6q-8.69 0-13.86 1.32-5.06 1.32-5.06 5.28 0 1.98 1.32 3.3 1.32 1.21 3.74 1.98 2.53.66 6.05.99 3.52.22 7.81.22t7.81-.22q3.52-.33 5.94-.99 2.53-.77 3.85-1.98 1.43-1.32 1.43-3.3 0-3.96-5.28-5.28-5.17-1.32-13.75-1.32m144.43-24.64v95.04h-12.43v-49.39H213.8v49.06h-12.32v-94.27h12.32v33h14.19v-33.44zm-47.85 5.94v10.89H167.6v43.45h3.96q1.43 0 4.07-.11 2.75-.22 5.94-.55 3.3-.44 6.71-.99 3.52-.66 6.49-1.54l1.43 10.67q-2.75.88-6.05 1.65-3.3.66-6.82 1.1t-7.04.66q-3.41.22-6.38.22h-14.96v-65.45z"/></g></svg>