<svg xmlns="http://www.w3.org/2000/svg" viewBox="0 0 1200 1200"><circle cx="600" cy="600" r="600" style="fill:#5fc0b9"/><path d="M411.839 939.766q-12.614 0-18-2.7-5.4-2.7-5.4-15.3v-63.9q0-9.893 4.5-16.65a135.216 135.216 0 0 1 10.8-13.95l131.4-158.4q72.9-88.193 105.3-144 32.4-55.793 32.4-89.1 0-36.893-19.35-58.5-19.364-21.6-55.35-25.2-34.214-3.586-69.3 7.2-35.1 10.8-78.3 35.1-12.614 7.214-17.55 4.95-4.957-2.236-6.75-10.35l-16.2-79.2q-1.814-7.193.45-11.7 2.236-4.492 13.05-11.7a235.923 235.923 0 0 1 38.7-21.15 375.081 375.081 0 0 1 44.55-16.2 317.688 317.688 0 0 1 45.45-9.9 295.383 295.383 0 0 1 40.5-3.15 258.89 258.89 0 0 1 81.45 12.6q38.243 12.615 66.15 37.35 27.886 24.764 44.1 61.65 16.2 36.914 16.2 85.5 0 42.314-18 84.6a533.212 533.212 0 0 1-44.1 82.35 838.203 838.203 0 0 1-56.25 76.5q-30.164 36.45-54.45 66.15-15.314 19.807-36.45 43.2-21.157 23.414-38.25 43.2h237.6q13.5 0 16.65 4.5 3.143 4.514 3.15 17.1v67.5q0 13.5-3.6 17.55-3.606 4.05-16.2 4.05Z" style="fill:#fff"/></svg>