<svg xmlns="http://www.w3.org/2000/svg" width="1000" height="1000"><path fill="#0054A6" d="m482.145.797 3.987-.022c4.227-.02 8.454-.024 12.68-.025h2.182C522.136.747 543.04.881 564 4l4.284.618C644.598 15.775 718.56 42.716 782 87l1.765 1.228c17.584 12.28 34.741 25.456 50.391 40.14a221 221 0 0 0 6.465 5.737c5.027 4.38 9.722 9.088 14.425 13.81q2.272 2.279 4.554 4.548c5.344 5.34 10.508 10.776 15.4 16.537q1.424 1.625 2.852 3.246c7.18 8.233 13.91 16.75 20.455 25.495 1.727 2.304 3.466 4.6 5.205 6.896 8.105 10.771 15.514 21.83 22.488 33.363l1.623 2.656c42.205 69.34 70.252 152.537 71.58 241.489l.022 3.987c.02 4.227.024 8.454.025 12.68v2.182c.002 21.142-.132 42.046-3.25 63.006l-.618 4.284C982.35 657.414 947.31 744.634 889 814l-4.375 5.438c-4.106 5.024-8.43 9.797-12.852 14.542-2.021 2.175-3.963 4.405-5.894 6.66-4.376 5.02-9.078 9.71-13.794 14.406q-2.278 2.272-4.548 4.554c-5.34 5.343-10.772 10.513-16.537 15.4a2186 2186 0 0 0-3.352 2.922C795.52 905.756 760.02 929.012 722 948l-3.014 1.519C703.346 957.367 687.47 964.099 671 970l-3.486 1.257c-47.628 17.005-98.97 27.765-149.659 27.946l-3.987.022c-4.227.02-8.454.024-12.68.025h-2.182c-21.142.002-42.046-.132-63.006-3.25l-4.284-.618C339.488 981.898 253.54 944.92 181.71 885.406a323 323 0 0 0-4.55-3.656c-12.756-10.128-24.26-21.77-35.785-33.25l-2.511-2.497A266 266 0 0 1 125 831q-1.425-1.624-2.852-3.246c-7.8-8.944-15.047-18.25-22.148-27.754l-1.481-1.974C80.633 774.148 65.328 748.686 52 722l-1.519-3.014C42.633 703.346 35.901 687.47 30 671l-1.257-3.486C11.738 619.886.978 568.544.797 517.855l-.022-3.987c-.02-4.227-.024-8.454-.025-12.68v-2.182C.747 477.864.881 456.96 4 436l.618-4.284C15.766 355.468 42.643 281.357 87 218l1.224-1.756c18.569-26.595 39.65-51.159 62.526-74.119l2.69-2.703c5.026-5.015 10.158-9.815 15.56-14.422q1.625-1.425 3.246-2.852c8.944-7.8 18.25-15.047 27.754-22.148l1.974-1.481C227.09 79.706 253.937 64.016 282 50l2.583-1.303c59.759-30.022 130.573-47.66 197.562-47.9"/><path fill="#FEFEFE" d="m175.385 310.877 2.809-.006 3.107.009 3.284-.003q5.484 0 10.968.01l7.834-.001q8.45 0 16.901.008 12.219.011 24.438.012 19.822.004 39.645.019 19.26.014 38.519.02h2.397l11.904.005q49.405.016 98.809.05v41H215v47h225v41H326v43h155v42H119v-42h155v-43a19090.05 19090.05 0 0 1-40.081.104q-9.306.014-18.61.047-8.978.032-17.955.039-3.427.004-6.856.021c-3.196.015-6.392.017-9.589.016l-2.875.022-2.643-.008-2.29.005c-2.494-.292-4.01-.85-6.101-2.246-1.999-2.949-2.254-5.375-2.267-8.89l-.026-2.977.002-3.248-.02-3.436c-.019-3.752-.023-7.505-.025-11.258l-.02-7.816q-.018-8.195-.015-16.39c.002-6.31-.02-12.622-.051-18.933-.03-6.076-.037-12.152-.035-18.228q-.005-3.875-.027-7.75c-.02-3.61-.014-7.22-.002-10.83l-.034-3.241c.062-7.248.062-7.248 2.425-11.143 2.992-2.656 4.576-2.985 8.48-2.983"/><path fill="#FDFEFE" d="M800 301h47v391h-47V499h-34v175h-48V308h48v142h34z"/><path fill="#FDFDFE" d="M297.001 548.609c3.762.016 7.523 0 11.284-.02 40.457-.034 89.536 5.334 119.715 35.411l2.152 2.082c10.534 10.898 15.2 24.024 15.08 38.924-.369 15.708-5.986 28.097-16.607 39.556-.866.805-1.732 1.61-2.625 2.438l-1.816 1.797C413.919 678.55 401.247 684.377 388 689l-1.93.675c-12.71 4.327-25.79 6.552-39.07 8.325l-2.71.364c-32.194 4.017-67.287 3.89-99.29-1.364l-2.733-.406C217.445 692.886 192.94 685.004 174 668l-1.914-1.668c-10.721-9.942-16.696-23.233-17.324-37.715-.43-18.24 4.454-32.688 17.176-46.055C185.144 570.41 202.68 561.494 220 557l2.433-.635c24.494-6.21 49.373-7.884 74.568-7.756M662 456l2.086 1.602C678.186 468.915 687.7 486.413 691 504l.502 2.151c1.498 6.678 1.847 13.08 1.81 19.911-.005 1.097-.01 2.193-.017 3.322-.389 26.284-9.526 48.682-28.498 67.194C643.794 614.765 618.519 617.121 592 616c-20.096-1.684-38.768-10.92-52.484-25.672-4.834-5.741-8.97-11.716-12.516-18.328l-1.113-1.992c-11.1-22.029-10.979-53.184-3.598-76.078 6.978-20.521 21.564-37.737 40.776-47.998 6.357-3.061 13.158-5.035 19.935-6.932l2.82-.812c25.855-5.986 55.942.773 76.18 17.812"/><path fill="#0154A6" d="M295.62 586.74c3.44.01 6.88 0 10.32-.013 11.847-.008 23.362.298 35.06 2.273l2.68.442c16.853 3.02 32.846 8.344 43.226 22.761 3.484 5.723 2.865 13.807 1.633 20.184-2.796 8.372-8.532 13.236-16.238 17.136-18.909 8.46-38.367 11.62-59.024 11.645l-2.984.01q-3.107.007-6.215.007c-3.109.002-6.217.02-9.326.04-12.07.033-23.795-.598-35.752-2.225l-3.646-.44c-14.444-1.77-29.44-6.513-39.624-17.326-4.333-5.596-6.425-11.935-6.05-19.007 1.155-8.033 4.169-13.816 10.445-18.973 21.558-16.065 49.743-16.61 75.495-16.515"/><path fill="#FEFEFE" d="M510 374h191v41H510z"/><path fill="#0155A6" d="M627.05 483.176c9.303 6.907 16.263 20.634 17.95 31.824.292 3.877.4 7.738.438 11.625l.031 2.89c-.182 14.554-5.216 26.767-15.211 37.29-7.252 7.051-14.436 10.27-24.633 10.633-10.055-.27-18.199-3.718-25.625-10.438l-1.578-1.379c-3.894-3.924-6.013-8.634-8.235-13.621l-.916-2.05c-3.362-7.93-3.477-15.757-3.521-24.263l-.062-2.974c-.076-14.233 5.24-26.224 14.98-36.514 13.284-12.527 31.101-11.785 46.383-3.023"/><path fill="#FDFEFE" d="M549 310h111v40H549z"/></svg>