<svg xmlns="http://www.w3.org/2000/svg" width="264.22955mm" height="264.22955mm" viewBox="0 0 264.22955 264.22955"><path d="M419.605 240.672A132.115 132.115 0 0 1 287.49 372.787a132.115 132.115 0 0 1-132.115-132.115A132.115 132.115 0 0 1 287.49 108.558a132.115 132.115 0 0 1 132.115 132.114" style="opacity:.993;fill:#ccc;fill-opacity:1;stroke-width:.353792;stroke-linecap:round;stroke-linejoin:round" transform="translate(-155.375 -108.558)"/><g style="font-size:81.206px;font-family:YDIYGO350;text-align:center;text-anchor:middle;fill:#fff;stroke-width:2.03023"><path d="M44.944 62.013h48.074v7.715H52.01v8.608h41.74v7.633H72.635v8.04h28.666v7.714H34.306v-7.715h28.585V85.97H44.863q-1.3 0-1.787-.487-.406-.487-.406-1.787V64.287q0-1.218.488-1.705.487-.569 1.786-.569m22.82 44.176q13.073 0 19.976 3.898 6.983 3.817 6.983 10.151 0 6.415-6.902 10.232t-20.058 3.817q-13.237 0-20.139-3.817-6.821-3.817-6.821-10.232 0-6.334 6.902-10.15 6.903-3.899 20.058-3.899zm0 6.984q-7.715 0-12.182 1.787-4.466 1.786-4.466 5.197 0 3.654 4.466 5.278 4.467 1.705 12.181 1.705 7.633 0 12.1-1.705 4.547-1.624 4.547-5.278 0-3.41-4.547-5.197-4.467-1.787-12.1-1.787zM111.37 62.5h33.133v7.634h-26.311v9.176h25.58v7.227h-25.58v9.42l10.638-.08q2.68 0 5.847-.163 3.248-.163 6.415-.406t6.01-.569q2.923-.325 5.034-.73v7.308q-1.705.325-4.466.65-2.68.243-5.766.568l-6.01.487q-3.004.163-5.196.244-3.249.162-6.578.244-3.248.08-6.01.08-2.76.082-4.628.082-1.868-.081-2.193-.081-1.299 0-1.786-.488-.406-.487-.406-1.786V64.774q0-1.218.487-1.705.487-.569 1.787-.569zm52.703-2.273v18.758h9.42v7.877h-9.42v27.773h-9.095V60.227Zm-45.394 71.299q-1.3 0-1.786-.488-.406-.487-.406-1.786v-19.814h9.42v14.292h40.359v7.796zm-98.015 61.797q-4.548 0-8.202-1.543-3.573-1.542-6.09-4.222-2.518-2.599-3.817-6.09-1.3-3.574-1.3-7.553t1.3-7.47q1.299-3.493 3.816-6.172 2.518-2.6 6.09-4.142 3.574-1.543 8.203-1.543 4.547 0 8.12 1.543 3.654 1.543 6.09 4.142 2.518 2.68 3.817 6.171 1.38 3.492 1.38 7.471t-1.38 7.552q-1.299 3.492-3.816 6.09-2.518 2.68-6.172 4.223-3.573 1.543-8.04 1.543zm0-30.94q-4.954 0-7.634 3.33-2.598 3.33-2.598 8.202 0 4.791 2.68 8.202t7.552 3.41 7.552-3.41q2.68-3.41 2.68-8.202 0-4.872-2.68-8.202t-7.552-3.33m39.79-8.77v53.597H51.36v-53.596zm-46.693 71.3q-1.3 0-1.786-.488-.406-.487-.406-1.786V200.55h9.257v16.566H62.16v7.795zm63.422-68.376h31.67v7.796h-24.93v21.357l8.12-.081q2.924 0 6.335-.163 3.41-.243 6.74-.487 3.248-.325 6.01-.65 2.841-.324 4.709-.65v7.553q-3.492.65-10.313 1.3-6.821.649-15.51.811-.894 0-3.005.082h-9.907q-1.3 0-1.787-.488-.406-.487-.406-1.786v-32.32q0-1.218.487-1.706.488-.568 1.787-.568m26.148 13.074h18.759v-15.997h9.095v43.688h-9.095v-20.139h-18.76Zm25.499 30.696q1.218 0 1.705.569.569.487.569 1.705v24.118h-9.177V207.94H80.675v-7.633zm65.208 9.013v-7.226h-15.916v-7.065h15.916v-41.415h9.177v55.707zm-36.055-6.414v-11.45h-15.267v-7.471h21.033q2.03 0 5.684-.082 3.654-.162 7.715-.406 4.141-.324 8.039-.65 3.979-.405 6.659-.892v7.47q-4.71.894-11.207 1.3-6.415.406-13.48.568v11.613zm-2.03 22.006q-1.3 0-1.787-.487-.406-.487-.406-1.786v-17.216h9.42v11.694h41.415v7.795zm-8.04-58.305q0-5.847 4.873-9.745 4.872-3.898 13.155-3.898 8.527 0 13.4 3.898 4.871 3.898 4.871 9.745 0 6.09-4.872 9.744t-13.399 3.655q-8.202 0-13.155-3.655-4.873-3.735-4.873-9.744m9.177 0q0 3.085 2.111 4.628t6.74 1.543q4.791 0 6.984-1.543t2.192-4.628q0-2.924-2.192-4.548-2.112-1.624-6.984-1.624-4.547 0-6.74 1.624-2.111 1.624-2.111 4.548" style="font-family:&quot;KoPubDotum Bold&quot;" transform="matrix(1.02097 0 0 .97947 27.14 -16.568)"/></g></svg>