<svg xmlns="http://www.w3.org/2000/svg" shape-rendering="geometricPrecision" text-rendering="geometricPrecision" viewBox="0 0 300 300"><circle r="150" fill="#941e34" transform="translate(150 150)"/><text xml:space="preserve" x="55.802048" y="138.7372" style="font-style:normal;font-variant:normal;font-weight:700;font-stretch:normal;font-size:150px;font-family:&quot;SeoulAlrim TTF&quot;;font-variant-ligatures:normal;font-variant-caps:normal;font-variant-numeric:normal;font-variant-east-asian:normal;writing-mode:tb-rl;direction:ltr;fill:#fff;fill-opacity:1"/><path d="M79.4 143.2v-11.6H46.6v-42h81.333v12.667h-65.6v16.8H128.6V131.6H95.667v11.6H143.8V156H30.867v-12.8zm7.867 20.4q21.333 0 32.4 5.867 11.066 5.866 11.066 18.266 0 12.267-11.066 18.134-11.067 6-32.4 6-21.467 0-32.533-6-10.934-6-10.934-18.134 0-24.133 43.467-24.133m0 12.4q-12.8 0-20.4 2.8-7.6 2.667-7.6 8.933 0 6.267 7.6 8.934 7.6 2.8 20.4 2.8t20.266-2.8q7.6-2.667 7.6-8.934t-7.6-8.933q-7.466-2.8-20.266-2.8m99.466-76.933h52V88.134h15.2v48.4h-82.4v-48.4h15.2zm17.867 73.6v-13.2h-48.4V146.4h112.933v13.067h-48.266v13.2h33.066v38.266h-15.466V185.6H169.4v-12.933zm34.133-48.8v-12.534h-52v12.534z" style="font-weight:700;font-size:133.333px;font-family:&quot;SeoulAlrim TTF&quot;;letter-spacing:0;fill:#fff"/></svg>