<svg xmlns="http://www.w3.org/2000/svg" id="_레이어_1" version="1.1" viewBox="0 0 1000 1000"><defs><style>.st0{fill:#fff}</style></defs><circle cx="499.9999439" cy="499.9999872" r="499.3313999" style="fill:#ad8605;opacity:.993"/><path d="M325.284 316.758c8.31 0 12.246 3.936 12.246 12.245-10.06 90.969-63.416 159.195-174.94 195.933l-30.614-35.864c85.72-24.053 135.578-67.35 150.01-130.329h-128.58v-41.985zM455.176 675.82c0 9.185-3.499 12.246-12.246 12.246H207.2c-9.184 0-12.246-3.061-12.246-12.246V549.864c0-8.747 3.062-12.246 12.246-12.246h235.73c8.31 0 12.246 3.937 12.246 12.246zm-48.983-27.99v-69.538H243.937v69.538zm49.858-125.518h-48.983V301.013h48.983zM862.344 648.705H500.656V606.72h154.822v-82.222H530.396v-41.986h51.17l-.875-122.02h-41.985v-41.985H823.42v41.985h-43.297l-.875 122.02h52.919v41.986H706.647v82.222h155.697zm-132.08-166.193.875-122.02h-100.59l1.312 122.02z" class="st0"/></svg>