<svg xmlns="http://www.w3.org/2000/svg" id="_레이어_1" version="1.1" viewBox="0 0 600 599.5029907"><defs><style>.st1{fill:#fff}</style></defs><path d="M600 299.746c0 165.572-134.194 299.757-300.051 299.757C134.536 599.503 0 465.318 0 299.746 0 134.271 134.536 0 299.949 0 465.806 0 600 134.271 600 299.746" style="fill:#cb2182"/><path d="m456.807 232.789 67.544-74.497h-44.414l-42.806 47.63zM510.662 319.712h-46.22l-37.692-51.689-44.894 51.69h-47.744l70.844-80.614-32.642-44.672H346.54l-73.56 125.686h-44.854l73.715-125.686H169.966s-45.225-1.276-63.934 41.751c0 0-19.776 48.363 15.836 48.363h38.641l14.801-25.335h-26.032l18.084-30.823 69.108-.063-46.544 79.677c-4.208 7.108-12.128 11.542-20.545 11.688l-56.042.027c-35.657 0-61.519-35.17-46.775-84.848 13.323-44.813 62.071-76.572 104.552-76.572H391.48l50.313 69.18zM237.704 375.71c12.042-1.817 26.357-3.18 42.035-3.18 28.403 0 48.625 6.587 62.032 19.08 13.632 12.493 21.584 30.21 21.584 54.968 0 24.986-7.724 45.429-22.04 59.512-14.314 14.31-37.945 22.033-67.711 22.033-14.087 0-25.903-.682-35.9-1.817zm19.768 135.377c4.999.908 12.27 1.136 19.995 1.136 42.262 0 65.212-23.623 65.212-64.963.227-36.115-20.223-59.057-62.031-59.057-10.225 0-17.95.908-23.176 2.044z" class="st1"/></svg>