<svg xmlns="http://www.w3.org/2000/svg" id="_레이어_1" version="1.1" viewBox="0 0 600 599.5029907"><defs><style>.st1{fill:#fff}</style></defs><path d="M600 299.746c0 165.572-134.194 299.757-300.051 299.757C134.536 599.503 0 465.318 0 299.746 0 134.271 134.536 0 299.949 0 465.806 0 600 134.271 600 299.746" style="fill:#234699"/><path d="m456.807 232.789 67.544-74.497h-44.414l-42.806 47.63zM510.662 319.712h-46.22l-37.692-51.689-44.894 51.69h-47.744l70.844-80.614-32.642-44.672H346.54l-73.56 125.686h-44.854l73.715-125.686H169.966s-45.225-1.276-63.934 41.751c0 0-19.776 48.363 15.836 48.363h38.641l14.801-25.335h-26.032l18.084-30.823 69.108-.063-46.544 79.677c-4.208 7.108-12.128 11.542-20.545 11.688l-56.042.027c-35.657 0-61.519-35.17-46.775-84.848 13.323-44.813 62.071-76.572 104.552-76.572H391.48l50.313 69.18zM251.79 375.71c8.634-1.817 22.268-3.18 36.128-3.18 19.769 0 32.492 3.408 42.035 11.13 7.953 5.905 12.725 14.991 12.725 27.03 0 14.764-9.77 27.711-25.904 33.617v.455c14.542 3.634 31.584 15.673 31.584 38.386 0 13.174-5.226 23.17-12.95 30.664-10.68 9.768-27.949 14.311-52.943 14.311-13.633 0-24.086-.91-30.675-1.817zm19.768 62.691h17.95c20.905 0 33.175-10.902 33.175-25.667 0-17.944-13.633-24.985-33.629-24.985-9.089 0-14.315.68-17.496 1.362zm0 73.368c3.863.681 9.543.908 16.587.908 20.45 0 39.31-7.495 39.31-29.756 0-20.897-17.951-29.528-39.537-29.528h-16.36z" class="st1"/></svg>