<svg xmlns="http://www.w3.org/2000/svg" id="_레이어_1" version="1.1" viewBox="0 0 600 599.5029907"><defs><style>.st0{fill:#fff}</style></defs><path d="M600 299.746c0 165.572-134.194 299.757-300.051 299.757C134.536 599.503 0 465.318 0 299.746 0 134.271 134.536 0 299.949 0 465.806 0 600 134.271 600 299.746" style="fill:#306e5b"/><path d="m456.807 232.789 67.544-74.497h-44.414l-42.806 47.63zM510.662 319.712h-46.22l-37.692-51.689-44.894 51.69h-47.744l70.844-80.614-32.642-44.672H346.54l-73.56 125.686h-44.854l73.715-125.686H169.966s-45.225-1.276-63.934 41.751c0 0-19.776 48.363 15.836 48.363h38.641l14.801-25.335h-26.032l18.084-30.823 69.108-.063-46.544 79.677c-4.208 7.108-12.128 11.542-20.545 11.688l-56.042.027c-35.657 0-61.519-35.17-46.775-84.848 13.323-44.813 62.071-76.572 104.552-76.572H391.48l50.313 69.18zM354.494 521.763c-7.271 3.633-21.813 7.268-40.445 7.268-43.172 0-75.664-27.257-75.664-77.456 0-47.927 32.492-80.408 79.981-80.408 19.086 0 31.13 4.089 36.355 6.814l-4.772 16.127c-7.498-3.633-18.177-6.359-30.901-6.359-35.901 0-59.759 22.941-59.759 63.146 0 37.478 21.586 61.555 58.85 61.555 12.043 0 24.312-2.499 32.265-6.36z" class="st0"/></svg>