<svg xmlns="http://www.w3.org/2000/svg" id="_레이어_1" version="1.1" viewBox="0 0 600 599.5030054"><defs><style>.st1{fill:#fff}</style></defs><path d="M600 299.746c0 165.572-134.194 299.757-300.051 299.757C134.536 599.503 0 465.318 0 299.746 0 134.271 134.536 0 299.949 0 465.806 0 600 134.271 600 299.746" style="fill:#98618f"/><path d="m456.807 232.789 67.544-74.497h-44.414l-42.806 47.63zM510.662 319.712h-46.22l-37.692-51.689-44.894 51.69h-47.744l70.844-80.614-32.642-44.672H346.54l-73.56 125.686h-44.854l73.715-125.686H169.966s-45.225-1.276-63.934 41.751c0 0-19.776 48.363 15.836 48.363h38.641l14.801-25.335h-26.032l18.084-30.823 69.108-.063-46.544 79.677c-4.208 7.108-12.128 11.542-20.545 11.688l-56.043.027c-35.656 0-61.518-35.17-46.774-84.848 13.323-44.813 62.071-76.572 104.552-76.572H391.48l50.313 69.18zM268.601 478.601l-15.908 48.159h-20.444l52.02-153.139h23.885l52.261 153.139h-21.14L322.908 478.6zm50.23-15.442-15-44.095c-3.396-9.952-5.672-19.056-7.918-27.925h-.498c-2.273 9.098-4.763 18.37-7.747 27.696l-14.973 44.324z" class="st1"/></svg>