<svg xmlns="http://www.w3.org/2000/svg" viewBox="0 0 1200 1200"><g style="fill:#0471c3;fill-opacity:1"><path d="M1200 600A600 600 0 1 1 0 600a600 600 0 0 1 1200 0Z" style="color:#000;font-style:normal;font-variant:normal;font-weight:400;font-stretch:normal;font-size:medium;font-family:sans-serif;font-variant-ligatures:normal;font-variant-position:normal;font-variant-caps:normal;font-variant-numeric:normal;font-variant-alternates:normal;font-variant-east-asian:normal;font-feature-settings:normal;text-indent:0;text-decoration:none;text-decoration-line:none;text-decoration-style:solid;text-decoration-color:#000;letter-spacing:normal;word-spacing:normal;text-transform:none;writing-mode:lr-tb;direction:ltr;text-orientation:mixed;dominant-baseline:auto;baseline-shift:baseline;text-anchor:start;clip-rule:nonzero;display:inline;overflow:visible;visibility:visible;color-interpolation:sRGB;vector-effect:none;fill:#0471c3;fill-opacity:1;fill-rule:nonzero;stroke-width:1;stroke-linecap:butt;stroke-linejoin:miter;stroke-miterlimit:4;stroke-dasharray:none;stroke-dashoffset:0;stroke-opacity:1;color-rendering:auto;image-rendering:auto;shape-rendering:auto;text-rendering:auto;enable-background:accumulate;stop-color:#000;stop-opacity:1;stroke:none;opacity:1"/></g><g style="font-size:912.2px;font-family:YDIYGO340;letter-spacing:0;fill:#fff;fill-opacity:1;stroke-width:4.82707"><path d="M506.91 495.774c.593-39.196 5.047-68.296 13.362-87.3 14.847-33.258 42.462-49.886 82.846-49.886 30.288 0 54.043 10.986 71.266 32.96 15.44 19.004 23.161 43.353 23.161 73.047 0 37.415-12.471 70.375-37.414 98.881-16.63 19.598-56.122 52.856-118.48 99.772l-13.362 11.58c-65.327 51.668-109.57 103.336-132.732 155.004-13.66 30.881-21.974 73.344-24.943 127.387h458.772v-119.37H538.98c5.345-13.065 17.52-28.21 36.524-45.432 12.471-11.284 38.899-32.663 79.283-64.139l35.632-26.725c42.76-32.663 73.345-61.763 91.755-87.3 30.288-40.978 45.432-89.379 45.432-145.204 0-71.265-22.27-127.387-66.812-168.365-41.571-38.602-95.614-57.903-162.129-57.903-51.668 0-95.912 13.065-132.732 39.196-57.607 42.166-86.41 113.431-86.41 213.797z" style="color:#000;font-style:normal;font-variant:normal;font-weight:400;font-stretch:normal;font-size:912.2px;font-family:HYGothic-Extra;font-variant-ligatures:normal;font-variant-position:normal;font-variant-caps:normal;font-variant-numeric:normal;font-variant-alternates:normal;font-variant-east-asian:normal;font-feature-settings:normal;text-indent:0;text-decoration:none;text-decoration-line:none;text-decoration-style:solid;text-decoration-color:#000;letter-spacing:0;word-spacing:normal;text-transform:none;writing-mode:lr-tb;direction:ltr;text-orientation:mixed;dominant-baseline:auto;baseline-shift:baseline;text-anchor:start;clip-rule:nonzero;display:inline;overflow:visible;visibility:visible;color-interpolation:sRGB;vector-effect:none;fill:#fff;fill-opacity:1;fill-rule:nonzero;stroke-width:4.82707;stroke-linecap:butt;stroke-linejoin:miter;stroke-miterlimit:4;stroke-dasharray:none;stroke-dashoffset:0;stroke-opacity:1;color-rendering:auto;image-rendering:auto;shape-rendering:auto;text-rendering:auto;enable-background:accumulate;stop-color:#000;stop-opacity:1;stroke:none;opacity:1"/></g></svg>