<?xml version="1.0" encoding="UTF-8"?>
<svg id="_레이어_1" xmlns="http://www.w3.org/2000/svg" version="1.1" viewBox="0 0 2144.72 829.43">
  <!-- Generator: Adobe Illustrator 30.2.1, SVG Export Plug-In . SVG Version: 2.1.1 Build 1)  -->
  <defs>
    <style>
      .st0 {
        fill: #6a6a6f;
      }

      .st1 {
        fill: #fff;
      }
    </style>
  </defs>
  <path class="st0" d="M2140.13,82.37l2.44-1.68c1.43-1.43,2.2-3.38,2.16-5.4,0-4.3-3.32-7.76-7.47-7.76C1938.11,54.63,1046.68,0,694,0,246.68,0,165.04,268.19,165.04,268.19h231.92c55.74-188.86,308.9-183.88,393.5-185.56,346.42,0,1158.19.33,1346.79.33,1.01,0,1.99-.17,2.87-.59"/>
  <path class="st1" d="M173.71,330c-26.46,0-33.25,21.42-33.25,21.42L27.35,734.95l-10.88,37.18L.07,827.58c-.29,1.02.34,1.85,1.4,1.85h183.12c16.59-1.12,49.48-8.55,61.28-48.62l132.87-450.81h-205.04"/>
  <path class="st1" d="M1413.53,567.42l355.37-237.43h-169.39c-18.09.93-25.25,2.78-41.43,12.65l-221.74,135.92-127.61-146.96c-.82-.96-1.99-1.55-3.26-1.61h-229.37c-1.05,0-1.29.68-.57,1.61l208.03,240.28-223.81,136.67-.17.26v-.18c-50.71,32.46-81.78,50.34-146.74,50.34h-63.61c-18.47,0-33.81-.42-54.98-10.88-19.06-9.45-30.43-23.1-31.02-43.85-.34-11.88,2.57-27.65,8.76-47.97l74.04-251.42h134.22c13.9-.84,39.03-7.51,47.93-37.77l10.88-37.11h-172.3l12.06-28.33c17.62-36.67,45.07-63.66,77.06-79.09h-152.07c-66.72,0-112.51,24.62-135.77,72.59l-12.57,34.82h-133.21l-22.17,74.88h135.15s-77.81,265.41-77.78,265.41c-8.55,29.51-12.61,52.53-12.19,68.46.68,24.29,13.88,49.5,47.14,67.73,36.09,19.81,90.12,22.98,169.04,22.98h293.83c64.74,0,107.33-29,107.33-29l202.77-134.04,118.79,135.82s21.37,27.23,66.27,27.23h188.47c1.05,0,1.31-.68.55-1.65l-225.95-260.38"/>
</svg>