<svg xmlns="http://www.w3.org/2000/svg" width="264.23001mm" height="264.22955mm" viewBox="0 0 264.23001 264.22955"><g transform="translate(-73.078 -39.794)"><ellipse cx="205.19334" cy="171.90886" rx="132.11501" ry="132.11478" style="opacity:.993;fill:#f04938;fill-opacity:1;stroke:none;stroke-width:.353792;stroke-linecap:round;stroke-linejoin:round"/><g style="font-size:90.4588px;font-family:YDIYGO350;fill:#fff;stroke-width:2.26148"><path d="M47.975 89.606v11.036q0 4.07 1.447 7.96 1.538 3.89 4.161 7.237 2.624 3.347 6.242 5.97 3.618 2.623 7.96 4.07l-6.513 7.69q-5.88-2.985-11.036-7.237-5.156-4.342-7.689-8.955-.814 2.352-2.623 4.884-1.81 2.443-4.342 4.885-2.442 2.352-5.428 4.614-2.985 2.17-6.06 3.89l-8.051-6.876q9.95-4.884 15.468-12.03 5.518-7.237 5.609-15.921V89.606Zm38.173-1.719v59.522h-10.13V87.887ZM34.406 167.31q-1.447 0-1.99-.543-.452-.543-.452-1.99v-23.61h10.312v17.459h45.772v8.684zM119.709 132.121q-5.066 0-9.137-1.718-3.98-1.719-6.784-4.704-2.804-2.895-4.252-6.785-1.447-3.98-1.447-8.412 0-4.433 1.447-8.322 1.448-3.89 4.252-6.875 2.804-2.895 6.784-4.614 3.98-1.718 9.137-1.718 5.065 0 9.046 1.718 4.07 1.719 6.784 4.614 2.804 2.985 4.251 6.875 1.538 3.89 1.538 8.322 0 4.432-1.538 8.412-1.447 3.89-4.251 6.785-2.804 2.985-6.875 4.704-3.98 1.718-8.955 1.718zm0-34.464q-5.518 0-8.504 3.708-2.894 3.71-2.894 9.137 0 5.337 2.985 9.136 2.985 3.8 8.413 3.8 5.427 0 8.412-3.8 2.985-3.8 2.985-9.136 0-5.428-2.985-9.137-2.985-3.708-8.412-3.708zm42.153-9.77v20.082h10.494v8.955h-10.494v30.214h-10.13v-59.25Zm-50.385 79.423q-1.447 0-1.99-.543-.453-.543-.453-1.99v-24.514h10.494v18.363h44.777v8.684zM217.404 133.388q-5.88-2.985-11.036-7.237-5.156-4.251-7.598-8.865-.995 2.623-2.986 5.156-1.9 2.533-4.342 4.885-2.532 2.352-5.427 4.523-2.895 2.08-5.699 3.709l-7.87-6.875q4.252-1.99 8.05-4.794 3.8-2.895 6.604-6.423 2.895-3.528 4.523-7.689 1.629-4.251 1.72-9.136V89.606h10.764v10.855q-.09 4.16 1.447 8.05 1.538 3.89 4.252 7.237 2.713 3.347 6.332 5.97 3.618 2.624 7.689 4.071zm33.56-13.66h-10.493v27.681H230.25V87.887h10.222v23.158h10.493zm-60.878 47.582q-1.448 0-1.99-.543-.453-.543-.453-1.99v-23.338h10.493v17.187h44.958v8.684z" style="font-family:&quot;KoPubDotum Bold&quot;" transform="matrix(.98266 0 0 1.01764 72.902 39.617)"/></g></g></svg>