<svg xmlns="http://www.w3.org/2000/svg" width="500" height="139.93826" viewBox="0 0 500 139.93826"><path fill="#4c2f48" d="M372.65 109.24c-1.3 3.653-5.136 6.127-11.756 6.127h-78.036L264.769 85.3c45.758-15.33 52.157-40.137 52.157-51.032C316.925 10.41 288.695 0 249.62 0H145.195c-49.54 0-67.048 25.617-68.91 51.283 3.594-9.613 15.318-26.685 58.833-26.685l95.747-.044c19.97 0 47.449-1.088 47.449 15.911 0 7.84-5.668 27.132-54.118 41.936l30.011 49.458a15 15 0 0 0 13.314 8.08l101.67-.07s28.465 2.847 38.675-29.95l27.646-76.778H400.05z" style="stroke-width:2.21484;fill:#fff"/><path fill="#4c2f48" d="M392.928 0c-8.789 0-50.554-.37-58.802 34.51h21.659c2.385-4.67 6.658-9.94 23.752-9.94l98.208-.063c5.878 0 9.22-1.734 11.697-6.004L500 0ZM201.196 33.204l-38.443 106.73h35.13l38.83-106.73zM117.803 34.46c-9.422 1.49-19.178 3.894-26.966 10.574-6.252 5.367-10.398 11.305-11.054 18.073-.662 6.83 2.932 13.564 6.77 20.086 3.925 6.672 7.65 11.976 7.65 16.326 0 10.552-13.818 15.854-32.061 15.854H17.827c-5.388 0-10.2 3.38-12.024 8.452L0 139.938s49.661-.076 61.325-.076c5.791 0 19.293-.675 24.67-1.326 21.73-2.625 43.263-16.082 44.353-36.771.585-11.116-8.093-21.892-13.54-34.18-4.826-10.885-9.38-23.218.995-33.125" style="stroke-width:2.21484;fill:#fff"/></svg>