<svg xmlns="http://www.w3.org/2000/svg" id="_레이어_1" version="1.1" viewBox="0 0 1000 1000"><defs><style>.st0{fill:#fff}</style></defs><circle cx="499.9999439" cy="499.9999872" r="499.3313999" style="fill:#f39c00;opacity:.993"/><path d="M273.258 573.15c-41.92 9.39-99.935 13.414-168.012 13.414H70.705V553.7l91.215-1.007c10.396 0 29.177-1.34 50.64-3.017s43.595-4.696 60.698-7.714zm-50.638-84.844c-14.42 13.749-33.871 21.798-58.016 21.798s-43.932-8.05-58.352-21.798c-13.75-13.75-21.798-32.53-21.798-55.333 0-21.463 8.048-40.913 21.798-54.663 14.42-13.75 34.206-22.133 58.352-22.133s43.595 8.384 58.016 22.133c13.749 13.75 22.133 33.2 22.133 54.663q0 17.103-6.037 31.187-5.533 13.583-16.096 24.146m-16.098-55.333c0-25.823-15.09-44.938-41.918-44.938-26.829 0-41.92 19.115-41.92 44.938 0 25.486 15.091 45.608 41.92 45.608 26.828 0 41.918-20.122 41.918-45.608m112.344 214.625H280.97v-300.14h37.895zM516.723 515.805c-29.512-13.75-55.67-32.865-67.742-54.327-4.359 10.731-13.414 21.797-26.493 32.864q-19.618 16.6-43.26 29.176l-28.17-25.152c49.968-19.115 77.466-52.314 77.466-92.892v-13.75h-53.99v-31.523h149.23v31.523h-54.661v14.085c0 38.901 28.169 69.083 71.094 82.497zm71.43 121.062c-19.116 10.73-45.944 16.097-76.797 16.097s-57.345-5.366-76.124-16.097c-19.116-10.731-30.182-26.493-30.182-46.949 0-20.121 11.737-35.548 30.852-46.614 19.116-10.732 45.944-16.768 75.79-16.768 30.853 0 57.345 6.036 76.46 16.768 18.78 10.731 30.518 26.493 30.518 46.614 0 10.395-2.683 19.45-8.384 27.163s-13.079 14.421-22.134 19.786m-10.396-47.62c0-21.462-25.487-32.864-66.065-32.864-38.9 0-66.064 12.408-66.064 32.864 0 10.396 6.036 18.78 18.444 24.816 12.408 6.373 28.17 9.39 47.62 9.39 19.786 0 35.883-3.353 47.62-9.725 11.738-5.7 18.445-14.085 18.445-24.48m34.54-60.028h-37.559v-84.844H519.07V412.85h55.668v-65.729h37.56zM921.827 552.023H803.112v95.575h-38.565v-95.575H645.16v-31.859h276.666zm-34.877-74.448c0 7.042-2.682 9.39-9.39 9.39H688.423c-7.043 0-9.055-2.348-9.055-9.39V352.152h38.23v34.206h131.459v-34.206h37.894zm-37.894-22.134v-37.895h-131.46v37.895z" class="st0"/></svg>