<svg xmlns="http://www.w3.org/2000/svg" width="264.22955mm" height="264.22955mm" viewBox="0 0 264.22955 264.22955"><path d="M273.288 139.029a132.115 132.115 0 0 1-132.115 132.115A132.115 132.115 0 0 1 9.06 139.029 132.115 132.115 0 0 1 141.173 6.914 132.115 132.115 0 0 1 273.288 139.03Z" style="opacity:.993;fill:#6f6f70;fill-opacity:1;stroke-width:.353792;stroke-linecap:round;stroke-linejoin:round" transform="translate(-9.059 -6.914)"/><g style="font-size:115.711px;font-family:&quot;KoPubDotum Bold&quot;;fill:#fff;stroke-width:2.89279;stop-color:#000"><path d="M41.017 103.252q0-4.513 1.736-8.678 1.851-4.166 5.323-7.29 3.355-3.24 8.215-5.091 4.976-1.967 11.224-1.967 6.133 0 10.993 1.967 4.975 1.851 8.33 5.091 3.472 3.124 5.324 7.29 1.85 4.165 1.85 8.678 0 4.513-1.85 8.679-1.852 4.165-5.323 7.405-3.356 3.24-8.331 5.091-4.86 1.852-10.993 1.852-6.248 0-11.224-1.852-4.86-1.851-8.215-5.091-3.472-3.24-5.323-7.405-1.736-4.166-1.736-8.679zm12.96 0q0 4.86 3.24 8.794 3.355 3.819 10.298 3.819 6.711 0 10.067-3.819 3.471-3.934 3.471-8.794 0-4.744-3.471-8.678-3.356-4.05-10.067-4.05-6.943 0-10.298 4.05-3.24 3.934-3.24 8.678zm-19.67 31.936h30.315q2.893 0 7.984-.115 5.092-.116 10.762-.463 5.67-.347 11.223-.81 5.555-.579 9.373-1.273v11.224q-6.017 1.041-14.117 1.62-7.984.463-16.778.694v34.366H60.11v-34.134H34.307ZM120.394 79.3v103.561h-12.96V79.3ZM170.73 84.623q1.735 0 2.43.81.81.694.81 2.43v35.754q0 1.852-.81 2.546-.695.694-2.43.694h-18.167v20.134l10.067-.116q2.545 0 5.554-.115 3.008-.232 5.9-.579 3.01-.231 5.555-.579 2.661-.347 4.628-.81v10.877q-1.735.232-4.397.695-2.66.347-6.017.694-3.355.347-7.405.694-4.05.231-8.447.231l-15.042.116q-1.852 0-2.546-.694-.694-.694-.694-2.546V119.22q0-1.735.694-2.43.694-.81 2.546-.81h18.05V95.731h-21.29V84.623zm51.028-5.323v103.446H209.03V79.3Zm-45.127 44.78h12.38v-14.232h-12.38v-11.34h12.38V81.036h12.729V178h-12.728v-42.35H176.63z"/></g></svg>