<svg xmlns="http://www.w3.org/2000/svg" xml:space="preserve" width="720.62933" height="719.99994" viewBox="0 0 720.62933 719.99994"><defs><clipPath id="a" clipPathUnits="userSpaceOnUse"><path d="M0 0h960v540H0Z"/></clipPath></defs><g clip-path="url(#a)" transform="matrix(1.33333 0 0 -1.33333 -279.685 720)"><path d="M212.58 269.94c0 147.73 119.75 267.48 267.48 267.48s267.48-119.75 267.48-267.48S627.79 2.46 480.06 2.46 212.58 122.21 212.58 269.94" style="fill:#59c3b8;fill-opacity:1;fill-rule:evenodd;stroke:none"/><path d="M212.58 269.94c0 147.73 119.75 267.48 267.48 267.48s267.48-119.75 267.48-267.48S627.79 2.46 480.06 2.46 212.58 122.21 212.58 269.94Z" style="fill:none;stroke:#59c3b8;stroke-width:1.5;stroke-linecap:butt;stroke-linejoin:miter;stroke-miterlimit:10;stroke-dasharray:none;stroke-opacity:1"/><path d="M435.38 280.7v-28.68h-30.63v137.43h30.63v-27.71h35.76v-25.75h-35.76v-29.78h35.76V280.7Zm-123.39-15.99c-18.39 0-33.44 5.66-45.16 16.97s-17.58 25.3-17.58 41.98c0 17.01 5.84 31.1 17.52 42.29 11.67 11.19 26.75 16.78 45.22 16.78s33.54-5.59 45.22-16.78c11.67-11.19 17.51-25.28 17.51-42.29 0-16.68-5.86-30.67-17.57-41.98-11.72-11.31-26.77-16.97-45.16-16.97m0 93c-9.77 0-17.54-3.15-23.31-9.46-5.78-6.3-8.67-14.42-8.67-24.34 0-10.01 2.85-18.17 8.54-24.48 5.7-6.3 13.51-9.45 23.44-9.45q14.64 0 23.43 9.45 8.79 9.465 8.79 24.48c0 9.92-2.97 18.04-8.91 24.34-5.94 6.31-13.71 9.46-23.31 9.46m48.7-202.72c-24.98 0-44.31 4.29-57.98 12.87-13.67 8.59-20.5 19.96-20.5 34.12 0 14.07 6.91 25.34 20.75 33.8 13.83 8.47 33.07 12.7 57.73 12.7 24.73 0 44-4.21 57.79-12.63 13.79-8.43 20.69-19.72 20.69-33.87 0-14.24-6.86-25.63-20.57-34.18-13.71-8.54-33.02-12.81-57.91-12.81m0 67.98c-31.17 0-46.75-7-46.75-20.99 0-14.32 15.58-21.48 46.75-21.48 31.32 0 46.99 7.16 46.99 21.48 0 13.99-15.67 20.99-46.99 20.99m324.41 69.69v-72.74h-30.39v169.53h30.39v-71.04h36v-25.75Zm-64.93-37.96c-22.71 10.82-40.61 26.57-53.71 47.24-4.47-8.95-12.32-19.17-23.55-30.64s-20.87-19.32-28.93-23.55l-22.33 21.97c16.6 7.16 30.55 18.14 41.86 32.95s16.97 29.82 16.97 45.04v31.73h30.63v-30.76c0-15.13 5.72-29.37 17.15-42.72q17.145-20.01 41.43-26.73zm-82.27-92.51v77.74h30.76v-51.99h123.03v-25.75z" style="fill:#3d3e3e;fill-opacity:1;fill-rule:nonzero;stroke:none"/></g></svg>